<?xml version="1.0" encoding="UTF-8" standalone="no"?>
<svg
   xmlns:dc="http://purl.org/dc/elements/1.1/"
   xmlns:cc="http://creativecommons.org/ns#"
   xmlns:rdf="http://www.w3.org/1999/02/22-rdf-syntax-ns#"
   xmlns:svg="http://www.w3.org/2000/svg"
   xmlns="http://www.w3.org/2000/svg"
   xmlns:sodipodi="http://sodipodi.sourceforge.net/DTD/sodipodi-0.dtd"
   xmlns:inkscape="http://www.inkscape.org/namespaces/inkscape"
   enable-background="new 0 0 800 600"
   xml:space="preserve"
   height="180"
   viewBox="0 0 179.99891 179.99774"
   width="180"
   version="1.1"
   y="0px"
   x="0px"
   id="svg869"
   sodipodi:docname="Redis_Logo.svg"
   inkscape:version="1.0.1 (c497b03c, 2020-09-10)"
   inkscape:export-filename="/Users/honza/Downloads/redis.png"
   inkscape:export-xdpi="112.58958"
   inkscape:export-ydpi="112.58958"><defs
     id="defs873" /><sodipodi:namedview
     pagecolor="#ffffff"
     bordercolor="#666666"
     borderopacity="1"
     objecttolerance="10"
     gridtolerance="10"
     guidetolerance="10"
     inkscape:pageopacity="0"
     inkscape:pageshadow="2"
     inkscape:window-width="1382"
     inkscape:window-height="847"
     id="namedview871"
     showgrid="false"
     fit-margin-top="0"
     fit-margin-left="0"
     fit-margin-right="0"
     fit-margin-bottom="0"
     inkscape:zoom="1.5234509"
     inkscape:cx="95.433852"
     inkscape:cy="89.309567"
     inkscape:window-x="58"
     inkscape:window-y="25"
     inkscape:window-maximized="1"
     inkscape:current-layer="svg869" /><metadata
     id="metadata833"><rdf:RDF><cc:Work
         rdf:about=""><dc:format>image/svg+xml</dc:format><dc:type
           rdf:resource="http://purl.org/dc/dcmitype/StillImage" /><dc:title></dc:title></cc:Work></rdf:RDF></metadata><g
     id="g979"
     transform="translate(4.9412306,17.097877)"><path
       fill="#a41e11"
       d="m 163.44814,112.42653 c -9.078,4.732 -56.106,24.068 -66.118002,29.287 -10.012,5.221 -15.574,5.17 -23.483,1.389 -7.909,-3.781 -57.955,-23.996 -66.9700003,-28.305 -4.506,-2.154 -6.87500003,-3.971 -6.87500003,-5.688 V 91.914534 c 0,0 65.15300033,-14.184 75.67200033,-17.957 10.518,-3.774 14.167,-3.91 23.118,-0.631 8.952002,3.279 62.474002,12.936 71.321002,16.176 0,0 -0.004,15.356996 -0.004,16.950996 0.001,1.7 -2.04,3.565 -6.661,5.973 z"
       id="path845" /><path
       fill="#d82c20"
       d="m 163.44814,95.226534 c -9.078,4.73 -56.106,24.067996 -66.118002,29.286996 -10.012,5.221 -15.574,5.17 -23.483,1.389 -7.91,-3.779 -57.955,-23.998 -66.9700003,-28.304996 -9.015,-4.309 -9.204,-7.275 -0.348,-10.742 8.8550003,-3.469 58.6260003,-22.996 69.1460003,-26.77 10.518,-3.772 14.167,-3.91 23.118,-0.63 8.952002,3.279 55.699002,21.886 64.545002,25.126 8.848,3.243 9.188,5.913 0.11,10.645 z"
       id="path847" /><path
       fill="#a41e11"
       d="m 163.44814,84.386534 c -9.078,4.732 -56.106,24.067996 -66.118002,29.288996 -10.012,5.219 -15.574,5.168 -23.483,1.387 -7.91,-3.779 -57.955,-23.995996 -66.9700003,-28.304996 -4.506,-2.154 -6.87500003,-3.969 -6.87500003,-5.686 v -17.197 c 0,0 65.15300033,-14.183 75.67200033,-17.957 10.518,-3.773 14.167,-3.91 23.118,-0.631 8.952002,3.279 62.474002,12.934 71.321002,16.175 0,0 -0.004,15.357 -0.004,16.953 0.001,1.699 -2.04,3.564 -6.661,5.972 z"
       id="path849" /><path
       fill="#d82c20"
       d="m 163.44814,67.186534 c -9.078,4.732 -56.106,24.068 -66.118002,29.289 -10.012,5.218996 -15.574,5.167996 -23.483,1.387 -7.91,-3.779 -57.955,-23.997 -66.9700003,-28.305 -9.015,-4.308 -9.204,-7.274 -0.348,-10.743 8.8550003,-3.467 58.6260003,-22.995 69.1460003,-26.768 10.518,-3.773 14.167,-3.91 23.118,-0.631 8.952002,3.279 55.699002,21.885 64.545002,25.126 8.848,3.242 9.188,5.913 0.11,10.645 z"
       id="path851" /><path
       fill="#a41e11"
       d="m 163.44814,55.306534 c -9.078,4.732 -56.106,24.069 -66.118002,29.29 -10.012,5.219 -15.574,5.168 -23.483,1.387 -7.91,-3.779 -57.955,-23.997 -66.9700003,-28.305 -4.506,-2.154 -6.87500003,-3.97 -6.87500003,-5.686 v -17.197 c 0,0 65.15300033,-14.183 75.67200033,-17.956 10.518,-3.774 14.167,-3.91 23.118,-0.631 8.952002,3.279 62.474002,12.934 71.321002,16.175 0,0 -0.004,15.357 -0.004,16.952 0.001,1.698 -2.04,3.563 -6.661,5.971 z"
       id="path853" /><path
       fill="#d82c20"
       d="m 163.44814,38.106534 c -9.078,4.732 -56.106,24.069 -66.118002,29.289 -10.012,5.219 -15.574,5.168 -23.483,1.388 -7.909,-3.78 -57.955,-23.997 -66.9700003,-28.305 -9.015,-4.308 -9.204,-7.275 -0.348,-10.743 8.8550003,-3.468 58.6260003,-22.9940003 69.1460003,-26.7680003 10.518,-3.774 14.167,-3.91 23.118,-0.63 8.952002,3.279 55.699002,21.8850003 64.545002,25.1260003 8.848,3.24 9.188,5.912 0.11,10.643 z"
       id="path855" /><text
       xml:space="preserve"
       style="font-style:normal;font-weight:normal;font-size:85.3328px;line-height:1.25;font-family:sans-serif;fill:#000000;fill-opacity:1;stroke:none;stroke-width:0.999994"
       x="16.912815"
       y="103.42167"
       id="text893"><tspan
         sodipodi:role="line"
         id="tspan891"
         x="16.912815"
         y="103.42167"
         style="font-style:normal;font-variant:normal;font-weight:normal;font-stretch:normal;font-size:85.3328px;font-family:'Arial Black';-inkscape-font-specification:'Arial Black, ';fill:#ffffff;stroke-width:0.999994">RC</tspan></text></g></svg>
